<?xml version="1.0" standalone="no"?><!DOCTYPE svg PUBLIC "-//W3C//DTD SVG 1.1//EN" "http://www.w3.org/Graphics/SVG/1.1/DTD/svg11.dtd"><svg t="1620831108598" class="icon" viewBox="0 0 1024 1024" version="1.1" xmlns="http://www.w3.org/2000/svg" p-id="13350" xmlns:xlink="http://www.w3.org/1999/xlink" width="200" height="200"><defs><style type="text/css">html, * { user-select: text !important; }
</style></defs><path d="M225.125 821.375C140.75 748.25 90.125 635.75 90.125 512 90.125 281.375 281.375 90.125 512 90.125s421.875 191.25 421.875 421.875c0 123.75-50.625 236.25-135 309.375l50.625 67.5c11.25 11.25 5.625 28.125-5.625 39.375-11.25 11.25-28.125 5.625-39.375-5.625l-50.625-67.5c-67.5 50.625-151.875 78.75-241.875 78.75-90 0-174.375-28.125-241.875-73.125l-50.625 67.5c-11.25 11.25-28.125 16.875-39.375 5.625s-16.875-33.75-5.625-45l50.625-67.5z m50.625-28.125c5.625 0 5.625 0 0 0l11.25 5.625c61.875 50.625 140.625 78.75 225 78.75s163.125-28.125 225-78.75l5.625-5.625s5.625 0 5.625-5.625c78.75-67.5 129.375-168.75 129.375-281.25 0-202.5-163.125-365.625-365.625-365.625S146.375 309.5 146.375 512c0 112.5 50.625 213.75 129.375 281.25z m264.375-320.625l168.75 157.5c11.25 11.25 11.25 28.125 0 39.375-11.25 11.25-28.125 11.25-39.375 0L506.375 517.625 500.75 512c-11.25-5.625-16.875-16.875-16.875-28.125v-168.75c0-16.875 11.25-28.125 28.125-28.125s28.125 11.25 28.125 28.125v157.5zM118.25 219.5c0 16.875-16.875 28.125-33.75 22.5S62 225.125 62 208.25c5.625-45 28.125-78.75 56.25-106.875C146.375 78.875 174.5 62 208.25 62c16.875 0 28.125 11.25 28.125 28.125 5.625 11.25-5.625 28.125-22.5 28.125-22.5 0-39.375 11.25-61.875 28.125-16.875 16.875-28.125 39.375-33.75 73.125z m787.5-5.625c0-28.125-5.625-45-28.125-67.5-16.875-16.875-39.375-28.125-56.25-28.125-16.875 0-28.125-16.875-28.125-28.125 0-16.875 16.875-28.125 28.125-28.125 33.75 5.625 61.875 16.875 95.625 45 33.75 33.75 45 67.5 45 112.5 0 16.875-16.875 28.125-28.125 28.125S905.75 230.75 905.75 213.875z" p-id="13351"></path></svg>