<?xml version="1.0" standalone="no"?><!DOCTYPE svg PUBLIC "-//W3C//DTD SVG 1.1//EN" "http://www.w3.org/Graphics/SVG/1.1/DTD/svg11.dtd"><svg t="1620831191748" class="icon" viewBox="0 0 1024 1024" version="1.1" xmlns="http://www.w3.org/2000/svg" p-id="14401" xmlns:xlink="http://www.w3.org/1999/xlink" width="200" height="200"><defs><style type="text/css">html, * { user-select: text !important; }
</style></defs><path d="M102.4 665.6H0v256a102.4 102.4 0 0 0 102.4 102.4h256v-102.4H102.4zM921.6 921.6h-256v102.4h256a102.4 102.4 0 0 0 102.4-102.4v-256h-102.4zM102.4 102.4h256V0H102.4a102.4 102.4 0 0 0-102.4 102.4v256h102.4zM921.6 0h-256v102.4h256v256h102.4V102.4a102.4 102.4 0 0 0-102.4-102.4z" p-id="14402"></path><path d="M814.592 819.2a307.2 307.2 0 0 0-194.56-236.544 204.8 204.8 0 1 0-216.064 0A307.2 307.2 0 0 0 209.408 819.2h104.96a204.8 204.8 0 0 1 395.264 0zM512 512a102.4 102.4 0 1 1 102.4-102.4 102.4 102.4 0 0 1-102.4 102.4z" p-id="14403"></path></svg>