<?xml version="1.0" standalone="no"?><!DOCTYPE svg PUBLIC "-//W3C//DTD SVG 1.1//EN" "http://www.w3.org/Graphics/SVG/1.1/DTD/svg11.dtd"><svg t="1620831099848" class="icon" viewBox="0 0 1024 1024" version="1.1" xmlns="http://www.w3.org/2000/svg" p-id="13218" xmlns:xlink="http://www.w3.org/1999/xlink" width="200" height="200"><defs><style type="text/css">html, * { user-select: text !important; }
</style></defs><path d="M937.6 243.2c12.4 0 22.4-10 22.4-22.4v-112c0-24.6-20.2-44.8-44.8-44.8H108.8C84.2 64 64 84.2 64 108.8v806.4c0 24.6 20.2 44.8 44.8 44.8h806.4c24.6 0 44.8-20.2 44.8-44.8V400c0-12.4-10-22.4-22.4-22.4-12.4 0-22.4 10-22.4 22.4v492.8c0 12.4-10 22.4-22.4 22.4H131.2c-12.4 0-22.4-10-22.4-22.4V131.2c0-12.4 10-22.4 22.4-22.4h761.6c12.4 0 22.4 10 22.4 22.4v89.6c0 12.4 10 22.4 22.4 22.4z" fill="#000000" p-id="13219"></path><path d="M758.4 601.6c0-12.3-10.1-22.4-22.4-22.4H288c-12.3 0-22.4 10.1-22.4 22.4 0 12.3 10.1 22.4 22.4 22.4h448c12.3 0 22.4-10.1 22.4-22.4zM736 444.8H556.8c-12.3 0-22.4 10.1-22.4 22.4 0 12.3 10.1 22.4 22.4 22.4H736c12.3 0 22.4-10.1 22.4-22.4 0-12.3-10.1-22.4-22.4-22.4zM288 713.6c-12.3 0-22.4 10.1-22.4 22.4s10.1 22.4 22.4 22.4h268.8c12.3 0 22.4-10.1 22.4-22.4s-10.1-22.4-22.4-22.4H288zM400 489.6c12.3 0 22.4-10.1 22.4-22.4V310.4H512c12.3 0 22.4-10.1 22.4-22.4s-10.1-22.4-22.4-22.4H288c-12.3 0-22.4 10.1-22.4 22.4s10.1 22.4 22.4 22.4h89.6v156.8c0 12.3 10.1 22.4 22.4 22.4z" fill="#000000" p-id="13220"></path></svg>