<?xml version="1.0" standalone="no"?><!DOCTYPE svg PUBLIC "-//W3C//DTD SVG 1.1//EN" "http://www.w3.org/Graphics/SVG/1.1/DTD/svg11.dtd"><svg t="1620831140721" class="icon" viewBox="0 0 1024 1024" version="1.1" xmlns="http://www.w3.org/2000/svg" p-id="13743" xmlns:xlink="http://www.w3.org/1999/xlink" width="200" height="200"><defs><style type="text/css">html, * { user-select: text !important; }
</style></defs><path d="M512.537236 932.027286l0 0.026606c-231.099379 0-419.132916-188.033537-419.132916-419.132916 0-231.125985 188.006931-419.132916 419.132916-419.132916s419.132916 188.006931 419.132916 419.132916c0 85.581144-25.461905 167.469176-73.741491 237.490949l36.098149 126.290311c3.798513 13.307074 2.016937 25.802666-5.02955 35.128055-8.828063 11.709693-24.781406 16.267499-41.572838 11.474332l-139.046846-39.739073C648.362714 915.289066 580.856227 932.027286 512.537236 932.027286L512.537236 932.027286zM705.810101 838.58715l0.026606-0.026606c1.990331 0 4.007267 0.288572 5.946432 0.812505l137.737014 39.372729-36.123732-126.473483c-1.833765-6.391571-0.629333-13.308097 3.300162-18.703991 46.864354-64.441685 71.619154-140.750651 71.619154-220.699518 0-207.209272-168.56923-375.779525-375.778502-375.779525S136.758734 305.659515 136.758734 512.868787c0 207.208249 168.56923 375.778502 375.778502 375.778502 63.996546 0 127.180588-16.372899 182.715415-47.336098C698.501648 839.504032 702.142571 838.58715 705.810101 838.58715L705.810101 838.58715z" p-id="13744"></path><path d="M512.537236 657.416927c-11.971659 0-21.689998-9.718339-21.689998-21.689998l0-86.708827c0-37.040614 27.977191-54.172807 50.453089-67.951625 27.216875-16.687054 50.715055-31.094182 50.715055-76.56991 0-43.826158-35.678594-79.478146-79.478146-79.478146s-79.478146 35.651988-79.478146 79.478146c0 11.971659-9.692756 21.689998-21.689998 21.689998-11.998265 0-21.689998-9.692756-21.689998-21.689998 0-67.74287 55.115272-122.859165 122.858142-122.859165s122.858142 55.116295 122.858142 122.859165c0 69.758784-41.257659 95.064123-71.409376 113.532753-21.611204 13.228279-29.758768 19.357883-29.758768 30.988782l0 86.708827C534.227234 647.698588 524.508895 657.416927 512.537236 657.416927L512.537236 657.416927z" p-id="13745"></path><path d="M534.227234 715.230658c0 11.971659-9.718339 21.691021-21.689998 21.691021-11.971659 0-21.689998-9.719362-21.689998-21.691021 0-11.970636 9.718339-21.689998 21.689998-21.689998C524.508895 693.540659 534.227234 703.260022 534.227234 715.230658L534.227234 715.230658z" p-id="13746"></path></svg>