<?xml version="1.0" standalone="no"?><!DOCTYPE svg PUBLIC "-//W3C//DTD SVG 1.1//EN" "http://www.w3.org/Graphics/SVG/1.1/DTD/svg11.dtd"><svg t="1620831131551" class="icon" viewBox="0 0 1024 1024" version="1.1" xmlns="http://www.w3.org/2000/svg" p-id="13612" xmlns:xlink="http://www.w3.org/1999/xlink" width="200" height="200"><defs><style type="text/css">html, * { user-select: text !important; }
</style></defs><path d="M659.1 715.8c-7.3-14.5-30.9-14.5-38.2 0L514.3 929.1c-5.3 10.5-1 23.4 9.5 28.6 10.5 5.2 23.4 1 28.6-9.5l26.1-52.2h123l26.1 52.2c3.8 7.5 11.3 11.8 19.1 11.8 3.2 0 6.5-0.7 9.5-2.3 10.5-5.3 14.8-18.1 9.5-28.6L659.1 715.8z m-59.2 137.5L640 773l40.1 80.3h-80.2zM896 704h-42.7v-42.7c0-11.8-9.6-21.3-21.3-21.3s-21.3 9.6-21.3 21.3V704H768c-11.8 0-21.3 9.6-21.3 21.3 0 11.8 9.6 21.3 21.3 21.3h42.7v42.7c0 11.8 9.6 21.3 21.3 21.3s21.3-9.6 21.3-21.3v-42.7H896c11.8 0 21.3-9.6 21.3-21.3 0-11.7-9.5-21.3-21.3-21.3zM723.6 597.3c21 0 29.4-27.4 12-39-34.6-23-72.9-40.7-113.8-52.2 74.3-39.4 125-117.4 125-207.4C746.7 169.1 641.6 64 512 64S277.3 169.1 277.3 298.7c0 90 50.7 168 125 207.4C231.9 553.9 106.7 710.2 106.7 896c0 15.5 1.1 30.7 2.9 45.7 1.3 10.5 10.5 18.3 21.1 18.3 12.6 0 22.6-10.8 21.1-23.3-1.6-13.4-2.5-26.9-2.5-40.7 0-200 162.7-362.7 362.7-362.7 73.9 0 142.7 22.3 200.1 60.5 3.4 2.3 7.4 3.5 11.5 3.5zM320 298.7c0-105.9 86.1-192 192-192s192 86.1 192 192-86.1 192-192 192-192-86.2-192-192z" fill="#333333" p-id="13613"></path></svg>