<?xml version="1.0" standalone="no"?><!DOCTYPE svg PUBLIC "-//W3C//DTD SVG 1.1//EN" "http://www.w3.org/Graphics/SVG/1.1/DTD/svg11.dtd"><svg t="1620831116973" class="icon" viewBox="0 0 1024 1024" version="1.1" xmlns="http://www.w3.org/2000/svg" p-id="13481" xmlns:xlink="http://www.w3.org/1999/xlink" width="200" height="200"><defs><style type="text/css">html, * { user-select: text !important; }
</style></defs><path d="M917.2992 727.5008c0-2.80064-0.59904-5.60128-1.69984-8.20224-0.19968-0.50176-0.70144-0.90112-0.90112-1.39776-0.9984-1.89952-2.00192-3.79904-3.59936-5.4016s-3.50208-2.60096-5.49888-3.59936c-0.50176-0.30208-0.90112-0.70144-1.39776-0.90112a21.12 21.12 0 0 0-8.20224-1.69984h-128c-11.6992 0-21.2992 9.6-21.2992 21.2992s9.6 21.2992 21.2992 21.2992h76.49792l-159.60064 159.60064-135.59808-135.70048v-0.1024c-4.1984-4.1984-9.6-6.20032-15.09888-6.20032s-10.90048 2.0992-15.09888 6.20032v0.1024L368.19968 923.5968c-8.29952 8.29952-8.29952 21.89824 0 30.19776s21.89824 8.29952 30.19776 0l135.70048-135.79776 135.3984 135.3984c0.1024 0.1024 0.1024 0.19968 0.19968 0.30208a21.2736 21.2736 0 0 0 15.09888 6.20032c5.49888 0 10.99776-2.00192 15.09888-6.20032 0.1024-0.1024 0.1024-0.19968 0.19968-0.30208l174.60224-174.40256v76.49792c0 11.6992 9.6 21.2992 21.2992 21.2992s21.2992-9.6 21.2992-21.2992V727.5008zM512 533.2992c86.2976 0 165.49888 30.30016 227.70176 80.59904a20.80768 20.80768 0 0 0 13.10208 4.70016c19.99872 0 28.9024-25.29792 13.39904-37.89824a402.48832 402.48832 0 0 0-144.70144-74.79808c81.60256-43.20256 134.79936-132.89984 123.6992-233.99936-11.89888-107.29984-99.0976-194.60096-206.49984-206.40256C397.10208 49.89952 277.2992 160.30208 277.2992 298.7008c0 89.99936 50.69824 168.00256 124.99968 207.40096a436.992 436.992 0 0 0-29.30176 9.4976c-1.30048 0.50176-2.60096 0.90112-3.79904 1.39776a370.60096 370.60096 0 0 0-27.40224 11.49952c-1.1008 0.50176-2.0992 0.9984-3.2 1.50016a407.1168 407.1168 0 0 0-100.1984 67.50208c-2.00192 1.89952-4.10112 3.70176-6.09792 5.60128-5.69856 5.4016-11.10016 11.10016-16.50176 16.79872a353.8944 353.8944 0 0 0-8.29952 9.20064 370.1248 370.1248 0 0 0-13.9008 16.59904 337.34144 337.34144 0 0 0-8.89856 11.89888c-3.90144 5.4016-7.90016 10.7008-11.60192 16.30208a398.55104 398.55104 0 0 0-9.99936 16.50176 414.67904 414.67904 0 0 0-11.40224 20.39808c-4.10112 8.00256-8.09984 16-11.6992 24.29952-1.89952 4.39808-3.50208 8.89856-5.20192 13.30176a382.464 382.464 0 0 0-7.79776 21.2992c-1.50016 4.70016-2.89792 9.40032-4.3008 14.19776a405.85216 405.85216 0 0 0-5.69856 22.2976c-1.1008 4.70016-2.0992 9.40032-3.00032 14.10048a342.54336 342.54336 0 0 0-3.79904 25.09824c-0.50176 4.10112-1.19808 8.20224-1.60256 12.29824a404.82304 404.82304 0 0 0-1.89952 38.2976c0 15.49824 1.1008 30.69952 2.89792 45.70112 1.30048 10.50112 10.50112 18.29888 21.09952 18.29888 12.49792 0 22.59968-10.79808 21.09952-23.30112a341.5552 341.5552 0 0 1-2.49856-40.69888c0.00512-200.28928 162.4064-362.69056 362.70592-362.69056zM322.69824 331.20256c-21.60128-131.39968 90.39872-243.39968 221.7984-221.7984 79.60064 13.10208 143.80032 77.19936 156.8 156.8 21.60128 131.39968-90.39872 243.39968-221.7984 221.9008-79.60064-13.20448-143.80032-77.30688-156.8-156.9024z" fill="#5D5D5D" p-id="13482"></path></svg>