<?xml version="1.0" standalone="no"?><!DOCTYPE svg PUBLIC "-//W3C//DTD SVG 1.1//EN" "http://www.w3.org/Graphics/SVG/1.1/DTD/svg11.dtd"><svg t="1620831181212" class="icon" viewBox="0 0 1024 1024" version="1.1" xmlns="http://www.w3.org/2000/svg" p-id="14270" xmlns:xlink="http://www.w3.org/1999/xlink" width="200" height="200"><defs><style type="text/css">html, * { user-select: text !important; }
</style></defs><path d="M896 234.7c11.8 0 21.3-9.6 21.3-21.3V106.7c0-23.6-19.1-42.7-42.7-42.7H149.3c-23.6 0-42.7 19.1-42.7 42.7v746.7c0 58.7 48 106.7 106.7 106.7H896c11.8 0 21.3-9.6 21.3-21.3 0-11.8-9.6-21.3-21.3-21.3H215.9c-31 0-59.4-20.9-65.3-51.2-7.9-40.9 23.3-76.8 62.8-76.8H896c11.8 0 21.3-9.6 21.3-21.3V384c0-11.8-9.6-21.3-21.3-21.3s-21.3 9.6-21.3 21.3v362.7H213.3c-24.1 0-46.1 8.4-64 22V128c0-11.8 9.6-21.3 21.3-21.3h682.7c11.8 0 21.3 9.6 21.3 21.3v85.3c0.1 11.8 9.6 21.4 21.4 21.4zM684.2 306L488.1 502.1 382.5 396.5c-8.3-8.3-21.8-8.3-30.2 0-8.3 8.3-8.3 21.8 0 30.2L473 547.3h0.1c2.1 2 4.4 3.6 7 4.6 0.3 0.1 0.7 0.1 1 0.2 2.3 0.8 4.6 1.4 7 1.4 5.5 0 11-2.1 15.1-6.2l211.2-211.2c8.3-8.3 8.3-21.9 0-30.2-8.3-8.2-21.9-8.2-30.2 0.1z" fill="#000000" p-id="14271"></path></svg>